<?xml version="1.0" encoding="windows-1252" standalone="no"?>
<svg xmlns="http://www.w3.org/2000/svg" xmlns:xlink="http://www.w3.org/1999/xlink" contentStyleType="text/css" height="989px" preserveAspectRatio="none" style="width:1415px;height:989px;background:#FFFFFF;" version="1.1" viewBox="0 0 1415 989" width="1415px" zoomAndPan="magnify"><defs/><g><!--cluster Main Hexagonal Architecture--><g id="cluster_Main Hexagonal Architecture"><path d="M8.5,6 L244.5,6 A3.75,3.75 0 0 1 247,8.5 L254,28.2969 L1405.5,28.2969 A2.5,2.5 0 0 1 1408,30.7969 L1408,979.5 A2.5,2.5 0 0 1 1405.5,982 L8.5,982 A2.5,2.5 0 0 1 6,979.5 L6,8.5 A2.5,2.5 0 0 1 8.5,6 " fill="none" style="stroke:#000000;stroke-width:1.5;"/><line style="stroke:#000000;stroke-width:1.5;" x1="6" x2="254" y1="28.2969" y2="28.2969"/><text fill="#000000" font-family="sans-serif" font-size="14" font-weight="bold" lengthAdjust="spacing" textLength="235" x="10" y="20.9951">Main Hexagonal Architecture</text></g><g id="elem_leyend"><path d="M1044.5,54 L1044.5,124.5313 L1315.5,124.5313 L1315.5,64 L1305.5,54 L1044.5,54 " fill="#FEFFDD" style="stroke:#181818;stroke-width:0.5;"/><path d="M1305.5,54 L1305.5,64 L1315.5,64 L1305.5,54 " fill="#FEFFDD" style="stroke:#181818;stroke-width:1.0;"/><text fill="#000000" font-family="sans-serif" font-size="13" lengthAdjust="spacing" textLength="185" x="1050.5" y="71.0669">yellow -&gt; Presentation Layer</text><text fill="#000000" font-family="sans-serif" font-size="13" lengthAdjust="spacing" textLength="156" x="1050.5" y="86.1997">green -&gt; Business Layer</text><text fill="#000000" font-family="sans-serif" font-size="13" lengthAdjust="spacing" textLength="176" x="1050.5" y="101.3325">Pink -&gt; Infrastructure Layer</text><text fill="#000000" font-family="sans-serif" font-size="13" lengthAdjust="spacing" textLength="250" x="1050.5" y="116.4653">White -&gt; Java Core/Framework Objects</text></g><!--class ProductHandler--><g id="elem_ProductHandler"><rect codeLine="8" fill="#98FB98" height="80.5938" id="ProductHandler" rx="2.5" ry="2.5" style="stroke:#181818;stroke-width:0.5;" width="686" x="130" y="314"/><ellipse cx="407.75" cy="330" fill="#ADD1B2" rx="11" ry="11" style="stroke:#181818;stroke-width:1.0;"/><path d="M410.0938,325.6719 C409.1563,325.2344 408.5625,325.0938 407.6875,325.0938 C405.0625,325.0938 403.0625,327.1719 403.0625,329.8906 L403.0625,331.0156 C403.0625,333.5938 405.1719,335.4844 408.0625,335.4844 C409.2813,335.4844 410.4375,335.1875 411.1875,334.6406 C411.7656,334.2344 412.0938,333.7813 412.0938,333.3906 C412.0938,332.9375 411.7031,332.5469 411.2344,332.5469 C411.0156,332.5469 410.8125,332.625 410.625,332.8125 C410.1719,333.2969 410.1719,333.2969 409.9844,333.3906 C409.5625,333.6563 408.875,333.7813 408.1094,333.7813 C406.0625,333.7813 404.7656,332.6875 404.7656,330.9844 L404.7656,329.8906 C404.7656,328.1094 406.0156,326.7969 407.75,326.7969 C408.3281,326.7969 408.9375,326.9531 409.4063,327.2031 C409.8906,327.4844 410.0625,327.7031 410.1563,328.1094 C410.2188,328.5156 410.25,328.6406 410.3906,328.7656 C410.5313,328.9063 410.7656,329.0156 410.9844,329.0156 C411.25,329.0156 411.5156,328.875 411.6875,328.6563 C411.7969,328.5 411.8281,328.3125 411.8281,327.8906 L411.8281,326.4688 C411.8281,326.0313 411.8125,325.9063 411.7188,325.75 C411.5625,325.4844 411.2813,325.3438 410.9844,325.3438 C410.6875,325.3438 410.4844,325.4375 410.2656,325.75 L410.0938,325.6719 Z " fill="#000000"/><ellipse cx="433.25" cy="329.5" fill="#84BE84" rx="3" ry="3" style="stroke:#038048;stroke-width:1.0;"/><text fill="#000000" font-family="sans-serif" font-size="14" lengthAdjust="spacing" textLength="111" x="439.25" y="334.8467">ProductHandler</text><line style="stroke:#181818;stroke-width:0.5;" x1="131" x2="815" y1="346" y2="346"/><rect fill="none" height="6" style="stroke:#C82930;stroke-width:1.0;" width="6" x="138" y="356.6484"/><text fill="#000000" font-family="sans-serif" font-size="14" lengthAdjust="spacing" textLength="337" x="150" y="362.9951">ProductRepositoryPort productRepositoryPort</text><line style="stroke:#181818;stroke-width:0.5;" x1="131" x2="815" y1="370.2969" y2="370.2969"/><ellipse cx="141" cy="383.9453" fill="#84BE84" rx="3" ry="3" style="stroke:#038048;stroke-width:1.0;"/><text fill="#000000" font-family="sans-serif" font-size="14" lengthAdjust="spacing" textLength="660" x="150" y="387.292">Optional&lt;ProductDomain&gt; find (Long productId,Integer brandId,LocalDateTime actualDate)</text></g><!--class ProductPort--><g id="elem_ProductPort"><rect codeLine="20" fill="#98FB98" height="56.2969" id="ProductPort" rx="2.5" ry="2.5" style="stroke:#008000;stroke-width:1.0;stroke-dasharray:7.0,7.0;" width="686" x="130" y="198"/><ellipse cx="422.25" cy="214" fill="#B4A7E5" rx="11" ry="11" style="stroke:#181818;stroke-width:1.0;"/><path d="M423.2031,210.7813 L424.9219,210.7813 C425.3125,210.7813 425.5,210.75 425.625,210.6719 C425.8906,210.5156 426.0313,210.2344 426.0313,209.9375 C426.0313,209.6719 425.9219,209.4063 425.6875,209.2344 C425.5156,209.125 425.375,209.0938 424.9219,209.0938 L419.7813,209.0938 C419.3438,209.0938 419.2188,209.1094 419.0625,209.2031 C418.8125,209.3594 418.6563,209.6563 418.6563,209.9375 C418.6563,210.2188 418.7969,210.4688 419.0156,210.6406 C419.1719,210.75 419.3594,210.7813 419.7813,210.7813 L421.5,210.7813 L421.5,217.2969 L419.7813,217.2969 C419.3438,217.2969 419.2188,217.3125 419.0625,217.4219 C418.8125,217.5781 418.6563,217.8594 418.6563,218.1563 C418.6563,218.4063 418.7969,218.6719 419.0156,218.8281 C419.1719,218.9531 419.375,219 419.7813,219 L424.9219,219 C425.6719,219 426.0313,218.7188 426.0313,218.1563 C426.0313,217.875 425.9219,217.625 425.6875,217.4531 C425.5156,217.3281 425.375,217.2969 424.9219,217.2969 L423.2031,217.2969 L423.2031,210.7813 Z " fill="#000000"/><ellipse cx="447.75" cy="213.5" fill="#84BE84" rx="3" ry="3" style="stroke:#038048;stroke-width:1.0;"/><text fill="#000000" font-family="sans-serif" font-size="14" font-style="italic" lengthAdjust="spacing" textLength="82" x="453.75" y="218.8467">ProductPort</text><line style="stroke:#008000;stroke-width:1.0;stroke-dasharray:7.0,7.0;" x1="131" x2="815" y1="230" y2="230"/><polygon fill="#4177AF" points="141,239.6484,137,245.6484,145,245.6484" style="stroke:#1963A0;stroke-width:1.0;"/><text fill="#000000" font-family="sans-serif" font-size="14" lengthAdjust="spacing" textLength="660" x="150" y="246.9951">Optional&lt;ProductDomain&gt; find (Long productId,Integer brandId,LocalDateTime actualDate)</text></g><!--class ProductRepositoryPort--><g id="elem_ProductRepositoryPort"><rect codeLine="15" fill="#98FB98" height="56.2969" id="ProductRepositoryPort" rx="2.5" ry="2.5" style="stroke:#181818;stroke-width:1.0;stroke-dasharray:7.0,7.0;" width="902" x="22" y="455"/><ellipse cx="384.25" cy="471" fill="#B4A7E5" rx="11" ry="11" style="stroke:#181818;stroke-width:1.0;"/><path d="M385.2031,467.7813 L386.9219,467.7813 C387.3125,467.7813 387.5,467.75 387.625,467.6719 C387.8906,467.5156 388.0313,467.2344 388.0313,466.9375 C388.0313,466.6719 387.9219,466.4063 387.6875,466.2344 C387.5156,466.125 387.375,466.0938 386.9219,466.0938 L381.7813,466.0938 C381.3438,466.0938 381.2188,466.1094 381.0625,466.2031 C380.8125,466.3594 380.6563,466.6563 380.6563,466.9375 C380.6563,467.2188 380.7969,467.4688 381.0156,467.6406 C381.1719,467.75 381.3594,467.7813 381.7813,467.7813 L383.5,467.7813 L383.5,474.2969 L381.7813,474.2969 C381.3438,474.2969 381.2188,474.3125 381.0625,474.4219 C380.8125,474.5781 380.6563,474.8594 380.6563,475.1563 C380.6563,475.4063 380.7969,475.6719 381.0156,475.8281 C381.1719,475.9531 381.375,476 381.7813,476 L386.9219,476 C387.6719,476 388.0313,475.7188 388.0313,475.1563 C388.0313,474.875 387.9219,474.625 387.6875,474.4531 C387.5156,474.3281 387.375,474.2969 386.9219,474.2969 L385.2031,474.2969 L385.2031,467.7813 Z " fill="#000000"/><ellipse cx="409.75" cy="470.5" fill="#84BE84" rx="3" ry="3" style="stroke:#038048;stroke-width:1.0;"/><text fill="#000000" font-family="sans-serif" font-size="14" font-style="italic" lengthAdjust="spacing" textLength="158" x="415.75" y="475.8467">ProductRepositoryPort</text><line style="stroke:#181818;stroke-width:1.0;stroke-dasharray:7.0,7.0;" x1="23" x2="923" y1="487" y2="487"/><polygon fill="#4177AF" points="33,496.6484,29,502.6484,37,502.6484" style="stroke:#1963A0;stroke-width:1.0;"/><text fill="#000000" font-family="sans-serif" font-size="14" lengthAdjust="spacing" textLength="876" x="42" y="503.9951">List&lt;ProductDomain&gt; findByProductIdAndBrandIdAndActualDate (Long productId,Integer brandId,Timestamp actualDate)</text></g><!--class ProductRepository--><g id="elem_ProductRepository"><rect codeLine="27" fill="#FFC0CB" height="56.2969" id="ProductRepository" rx="2.5" ry="2.5" style="stroke:#181818;stroke-width:0.5;" width="847" x="544.5" y="744.5"/><ellipse cx="893.25" cy="760.5" fill="#B4A7E5" rx="11" ry="11" style="stroke:#181818;stroke-width:1.0;"/><path d="M894.2031,757.2813 L895.9219,757.2813 C896.3125,757.2813 896.5,757.25 896.625,757.1719 C896.8906,757.0156 897.0313,756.7344 897.0313,756.4375 C897.0313,756.1719 896.9219,755.9063 896.6875,755.7344 C896.5156,755.625 896.375,755.5938 895.9219,755.5938 L890.7813,755.5938 C890.3438,755.5938 890.2188,755.6094 890.0625,755.7031 C889.8125,755.8594 889.6563,756.1563 889.6563,756.4375 C889.6563,756.7188 889.7969,756.9688 890.0156,757.1406 C890.1719,757.25 890.3594,757.2813 890.7813,757.2813 L892.5,757.2813 L892.5,763.7969 L890.7813,763.7969 C890.3438,763.7969 890.2188,763.8125 890.0625,763.9219 C889.8125,764.0781 889.6563,764.3594 889.6563,764.6563 C889.6563,764.9063 889.7969,765.1719 890.0156,765.3281 C890.1719,765.4531 890.375,765.5 890.7813,765.5 L895.9219,765.5 C896.6719,765.5 897.0313,765.2188 897.0313,764.6563 C897.0313,764.375 896.9219,764.125 896.6875,763.9531 C896.5156,763.8281 896.375,763.7969 895.9219,763.7969 L894.2031,763.7969 L894.2031,757.2813 Z " fill="#000000"/><ellipse cx="918.75" cy="760" fill="#84BE84" rx="3" ry="3" style="stroke:#038048;stroke-width:1.0;"/><text fill="#000000" font-family="sans-serif" font-size="14" font-style="italic" lengthAdjust="spacing" textLength="130" x="924.75" y="765.3467">ProductRepository</text><line style="stroke:#181818;stroke-width:0.5;" x1="545.5" x2="1390.5" y1="776.5" y2="776.5"/><polygon fill="#4177AF" points="555.5,786.1484,551.5,792.1484,559.5,792.1484" style="stroke:#1963A0;stroke-width:1.0;"/><text fill="#000000" font-family="sans-serif" font-size="14" lengthAdjust="spacing" textLength="821" x="564.5" y="793.4951">List&lt;Product&gt; findByProductIdAndBrandIdAndActualDate (Long productId,Integer brandId,Timestamp actualDate)</text></g><!--class JpaRepository--><g id="elem_JpaRepository"><rect fill="#F1F1F1" height="32" id="JpaRepository" rx="2.5" ry="2.5" style="stroke:#181818;stroke-width:0.5;" width="130" x="959" y="603.5"/><ellipse cx="974" cy="619.5" fill="#B4A7E5" rx="11" ry="11" style="stroke:#181818;stroke-width:1.0;"/><path d="M974.9531,616.2813 L976.6719,616.2813 C977.0625,616.2813 977.25,616.25 977.375,616.1719 C977.6406,616.0156 977.7813,615.7344 977.7813,615.4375 C977.7813,615.1719 977.6719,614.9063 977.4375,614.7344 C977.2656,614.625 977.125,614.5938 976.6719,614.5938 L971.5313,614.5938 C971.0938,614.5938 970.9688,614.6094 970.8125,614.7031 C970.5625,614.8594 970.4063,615.1563 970.4063,615.4375 C970.4063,615.7188 970.5469,615.9688 970.7656,616.1406 C970.9219,616.25 971.1094,616.2813 971.5313,616.2813 L973.25,616.2813 L973.25,622.7969 L971.5313,622.7969 C971.0938,622.7969 970.9688,622.8125 970.8125,622.9219 C970.5625,623.0781 970.4063,623.3594 970.4063,623.6563 C970.4063,623.9063 970.5469,624.1719 970.7656,624.3281 C970.9219,624.4531 971.125,624.5 971.5313,624.5 L976.6719,624.5 C977.4219,624.5 977.7813,624.2188 977.7813,623.6563 C977.7813,623.375 977.6719,623.125 977.4375,622.9531 C977.2656,622.8281 977.125,622.7969 976.6719,622.7969 L974.9531,622.7969 L974.9531,616.2813 Z " fill="#000000"/><text fill="#000000" font-family="sans-serif" font-size="14" font-style="italic" lengthAdjust="spacing" textLength="98" x="988" y="624.3467">JpaRepository</text></g><!--class ProductDao--><g id="elem_ProductDao"><rect codeLine="32" fill="#FFC0CB" height="96.8906" id="ProductDao" rx="2.5" ry="2.5" style="stroke:#181818;stroke-width:0.5;" width="902" x="22" y="571"/><ellipse cx="421.25" cy="587" fill="#ADD1B2" rx="11" ry="11" style="stroke:#181818;stroke-width:1.0;"/><path d="M423.5938,582.6719 C422.6563,582.2344 422.0625,582.0938 421.1875,582.0938 C418.5625,582.0938 416.5625,584.1719 416.5625,586.8906 L416.5625,588.0156 C416.5625,590.5938 418.6719,592.4844 421.5625,592.4844 C422.7813,592.4844 423.9375,592.1875 424.6875,591.6406 C425.2656,591.2344 425.5938,590.7813 425.5938,590.3906 C425.5938,589.9375 425.2031,589.5469 424.7344,589.5469 C424.5156,589.5469 424.3125,589.625 424.125,589.8125 C423.6719,590.2969 423.6719,590.2969 423.4844,590.3906 C423.0625,590.6563 422.375,590.7813 421.6094,590.7813 C419.5625,590.7813 418.2656,589.6875 418.2656,587.9844 L418.2656,586.8906 C418.2656,585.1094 419.5156,583.7969 421.25,583.7969 C421.8281,583.7969 422.4375,583.9531 422.9063,584.2031 C423.3906,584.4844 423.5625,584.7031 423.6563,585.1094 C423.7188,585.5156 423.75,585.6406 423.8906,585.7656 C424.0313,585.9063 424.2656,586.0156 424.4844,586.0156 C424.75,586.0156 425.0156,585.875 425.1875,585.6563 C425.2969,585.5 425.3281,585.3125 425.3281,584.8906 L425.3281,583.4688 C425.3281,583.0313 425.3125,582.9063 425.2188,582.75 C425.0625,582.4844 424.7813,582.3438 424.4844,582.3438 C424.1875,582.3438 423.9844,582.4375 423.7656,582.75 L423.5938,582.6719 Z " fill="#000000"/><ellipse cx="446.75" cy="586.5" fill="#84BE84" rx="3" ry="3" style="stroke:#038048;stroke-width:1.0;"/><text fill="#000000" font-family="sans-serif" font-size="14" lengthAdjust="spacing" textLength="84" x="452.75" y="591.8467">ProductDao</text><line style="stroke:#181818;stroke-width:0.5;" x1="23" x2="923" y1="603" y2="603"/><rect fill="none" height="6" style="stroke:#C82930;stroke-width:1.0;" width="6" x="30" y="613.6484"/><text fill="#000000" font-family="sans-serif" font-size="14" lengthAdjust="spacing" textLength="275" x="42" y="619.9951">ProductRepository productRepository</text><rect fill="none" height="6" style="stroke:#C82930;stroke-width:1.0;" width="6" x="30" y="629.9453"/><text fill="#000000" font-family="sans-serif" font-size="14" lengthAdjust="spacing" textLength="335" x="42" y="636.292">ProductDomainFactory productDomainFactory</text><line style="stroke:#181818;stroke-width:0.5;" x1="23" x2="923" y1="643.5938" y2="643.5938"/><ellipse cx="33" cy="657.2422" fill="#84BE84" rx="3" ry="3" style="stroke:#038048;stroke-width:1.0;"/><text fill="#000000" font-family="sans-serif" font-size="14" lengthAdjust="spacing" textLength="876" x="42" y="660.5889">List&lt;ProductDomain&gt; findByProductIdAndBrandIdAndActualDate (Long productId,Integer brandId,Timestamp actualDate)</text></g><!--class ProductDomainFactory--><g id="elem_ProductDomainFactory"><rect codeLine="40" fill="#FFC0CB" height="88.8906" id="ProductDomainFactory" rx="2.5" ry="2.5" style="stroke:#181818;stroke-width:0.5;" width="487" x="22.5" y="728"/><ellipse cx="174.75" cy="744" fill="#B4A7E5" rx="11" ry="11" style="stroke:#181818;stroke-width:1.0;"/><path d="M175.7031,740.7813 L177.4219,740.7813 C177.8125,740.7813 178,740.75 178.125,740.6719 C178.3906,740.5156 178.5313,740.2344 178.5313,739.9375 C178.5313,739.6719 178.4219,739.4063 178.1875,739.2344 C178.0156,739.125 177.875,739.0938 177.4219,739.0938 L172.2813,739.0938 C171.8438,739.0938 171.7188,739.1094 171.5625,739.2031 C171.3125,739.3594 171.1563,739.6563 171.1563,739.9375 C171.1563,740.2188 171.2969,740.4688 171.5156,740.6406 C171.6719,740.75 171.8594,740.7813 172.2813,740.7813 L174,740.7813 L174,747.2969 L172.2813,747.2969 C171.8438,747.2969 171.7188,747.3125 171.5625,747.4219 C171.3125,747.5781 171.1563,747.8594 171.1563,748.1563 C171.1563,748.4063 171.2969,748.6719 171.5156,748.8281 C171.6719,748.9531 171.875,749 172.2813,749 L177.4219,749 C178.1719,749 178.5313,748.7188 178.5313,748.1563 C178.5313,747.875 178.4219,747.625 178.1875,747.4531 C178.0156,747.3281 177.875,747.2969 177.4219,747.2969 L175.7031,747.2969 L175.7031,740.7813 Z " fill="#000000"/><ellipse cx="200.25" cy="743.5" fill="#84BE84" rx="3" ry="3" style="stroke:#038048;stroke-width:1.0;"/><text fill="#000000" font-family="sans-serif" font-size="14" font-style="italic" lengthAdjust="spacing" textLength="163" x="206.25" y="748.8467">ProductDomainFactory</text><line style="stroke:#181818;stroke-width:0.5;" x1="23.5" x2="508.5" y1="760" y2="760"/><ellipse cx="33.5" cy="773.6484" fill="#84BE84" rx="3" ry="3" style="stroke:#038048;stroke-width:1.0;"/><text fill="#000000" font-family="sans-serif" font-size="14" lengthAdjust="spacing" textLength="461" x="42.5" y="776.9951">ProductDomain create (Product product,Timestamp actualDate)</text><polygon fill="#4177AF" points="33.5,785.9453,29.5,791.9453,37.5,791.9453" style="stroke:#1963A0;stroke-width:1.0;"/><text fill="#000000" font-family="sans-serif" font-size="14" lengthAdjust="spacing" textLength="309" x="42.5" y="793.292">default String mapCurrency (Currency curr)</text><polygon fill="#4177AF" points="33.5,802.2422,29.5,808.2422,37.5,808.2422" style="stroke:#1963A0;stroke-width:1.0;"/><text fill="#000000" font-family="sans-serif" font-size="14" lengthAdjust="spacing" textLength="461" x="42.5" y="809.5889">default LocalDateTime mapTimestamp (Timestamp timestamp)</text></g><!--class ProductResponseDtoFactory--><g id="elem_ProductResponseDtoFactory"><rect codeLine="48" fill="#FFFF00" height="56.2969" id="ProductResponseDtoFactory" rx="2.5" ry="2.5" style="stroke:#181818;stroke-width:0.5;" width="471" x="851.5" y="198"/><ellipse cx="976.75" cy="214" fill="#B4A7E5" rx="11" ry="11" style="stroke:#181818;stroke-width:1.0;"/><path d="M977.7031,210.7813 L979.4219,210.7813 C979.8125,210.7813 980,210.75 980.125,210.6719 C980.3906,210.5156 980.5313,210.2344 980.5313,209.9375 C980.5313,209.6719 980.4219,209.4063 980.1875,209.2344 C980.0156,209.125 979.875,209.0938 979.4219,209.0938 L974.2813,209.0938 C973.8438,209.0938 973.7188,209.1094 973.5625,209.2031 C973.3125,209.3594 973.1563,209.6563 973.1563,209.9375 C973.1563,210.2188 973.2969,210.4688 973.5156,210.6406 C973.6719,210.75 973.8594,210.7813 974.2813,210.7813 L976,210.7813 L976,217.2969 L974.2813,217.2969 C973.8438,217.2969 973.7188,217.3125 973.5625,217.4219 C973.3125,217.5781 973.1563,217.8594 973.1563,218.1563 C973.1563,218.4063 973.2969,218.6719 973.5156,218.8281 C973.6719,218.9531 973.875,219 974.2813,219 L979.4219,219 C980.1719,219 980.5313,218.7188 980.5313,218.1563 C980.5313,217.875 980.4219,217.625 980.1875,217.4531 C980.0156,217.3281 979.875,217.2969 979.4219,217.2969 L977.7031,217.2969 L977.7031,210.7813 Z " fill="#000000"/><ellipse cx="1002.25" cy="213.5" fill="#84BE84" rx="3" ry="3" style="stroke:#038048;stroke-width:1.0;"/><text fill="#000000" font-family="sans-serif" font-size="14" font-style="italic" lengthAdjust="spacing" textLength="201" x="1008.25" y="218.8467">ProductResponseDtoFactory</text><line style="stroke:#181818;stroke-width:0.5;" x1="852.5" x2="1321.5" y1="230" y2="230"/><ellipse cx="862.5" cy="243.6484" fill="#84BE84" rx="3" ry="3" style="stroke:#038048;stroke-width:1.0;"/><text fill="#000000" font-family="sans-serif" font-size="14" lengthAdjust="spacing" textLength="445" x="871.5" y="246.9951">ProductResponseDto create (ProductDomain productDomain)</text></g><!--class ProductController--><g id="elem_ProductController"><rect codeLine="53" fill="#FFFF00" height="96.8906" id="ProductController" rx="2.5" ry="2.5" style="stroke:#181818;stroke-width:0.5;" width="622" x="237" y="41"/><ellipse cx="473.75" cy="57" fill="#ADD1B2" rx="11" ry="11" style="stroke:#181818;stroke-width:1.0;"/><path d="M476.0938,52.6719 C475.1563,52.2344 474.5625,52.0938 473.6875,52.0938 C471.0625,52.0938 469.0625,54.1719 469.0625,56.8906 L469.0625,58.0156 C469.0625,60.5938 471.1719,62.4844 474.0625,62.4844 C475.2813,62.4844 476.4375,62.1875 477.1875,61.6406 C477.7656,61.2344 478.0938,60.7813 478.0938,60.3906 C478.0938,59.9375 477.7031,59.5469 477.2344,59.5469 C477.0156,59.5469 476.8125,59.625 476.625,59.8125 C476.1719,60.2969 476.1719,60.2969 475.9844,60.3906 C475.5625,60.6563 474.875,60.7813 474.1094,60.7813 C472.0625,60.7813 470.7656,59.6875 470.7656,57.9844 L470.7656,56.8906 C470.7656,55.1094 472.0156,53.7969 473.75,53.7969 C474.3281,53.7969 474.9375,53.9531 475.4063,54.2031 C475.8906,54.4844 476.0625,54.7031 476.1563,55.1094 C476.2188,55.5156 476.25,55.6406 476.3906,55.7656 C476.5313,55.9063 476.7656,56.0156 476.9844,56.0156 C477.25,56.0156 477.5156,55.875 477.6875,55.6563 C477.7969,55.5 477.8281,55.3125 477.8281,54.8906 L477.8281,53.4688 C477.8281,53.0313 477.8125,52.9063 477.7188,52.75 C477.5625,52.4844 477.2813,52.3438 476.9844,52.3438 C476.6875,52.3438 476.4844,52.4375 476.2656,52.75 L476.0938,52.6719 Z " fill="#000000"/><ellipse cx="499.25" cy="56.5" fill="#84BE84" rx="3" ry="3" style="stroke:#038048;stroke-width:1.0;"/><text fill="#000000" font-family="sans-serif" font-size="14" lengthAdjust="spacing" textLength="129" x="505.25" y="61.8467">ProductController</text><line style="stroke:#181818;stroke-width:0.5;" x1="238" x2="858" y1="73" y2="73"/><rect fill="none" height="6" style="stroke:#C82930;stroke-width:1.0;" width="6" x="245" y="83.6484"/><text fill="#000000" font-family="sans-serif" font-size="14" lengthAdjust="spacing" textLength="179" x="257" y="89.9951">ProductPort productPort</text><rect fill="none" height="6" style="stroke:#C82930;stroke-width:1.0;" width="6" x="245" y="99.9453"/><text fill="#000000" font-family="sans-serif" font-size="14" lengthAdjust="spacing" textLength="419" x="257" y="106.292">ProductResponseDtoFactory productResponseDtoFactory</text><line style="stroke:#181818;stroke-width:0.5;" x1="238" x2="858" y1="113.5938" y2="113.5938"/><ellipse cx="248" cy="127.2422" fill="#84BE84" rx="3" ry="3" style="stroke:#038048;stroke-width:1.0;"/><text fill="#000000" font-family="sans-serif" font-size="14" lengthAdjust="spacing" textLength="596" x="257" y="130.5889">ResponseEntity&lt;ProductResponseDto&gt; get (ProductRequestDto productBaseDto)</text></g><!--class ProductResponseDtoFactoryImpl--><g id="elem_ProductResponseDtoFactoryImpl"><rect codeLine="62" fill="#FFFF00" height="56.2969" id="ProductResponseDtoFactoryImpl" rx="2.5" ry="2.5" style="stroke:#181818;stroke-width:0.5;" width="471" x="851.5" y="326.5"/><ellipse cx="957.75" cy="342.5" fill="#ADD1B2" rx="11" ry="11" style="stroke:#181818;stroke-width:1.0;"/><path d="M960.0938,338.1719 C959.1563,337.7344 958.5625,337.5938 957.6875,337.5938 C955.0625,337.5938 953.0625,339.6719 953.0625,342.3906 L953.0625,343.5156 C953.0625,346.0938 955.1719,347.9844 958.0625,347.9844 C959.2813,347.9844 960.4375,347.6875 961.1875,347.1406 C961.7656,346.7344 962.0938,346.2813 962.0938,345.8906 C962.0938,345.4375 961.7031,345.0469 961.2344,345.0469 C961.0156,345.0469 960.8125,345.125 960.625,345.3125 C960.1719,345.7969 960.1719,345.7969 959.9844,345.8906 C959.5625,346.1563 958.875,346.2813 958.1094,346.2813 C956.0625,346.2813 954.7656,345.1875 954.7656,343.4844 L954.7656,342.3906 C954.7656,340.6094 956.0156,339.2969 957.75,339.2969 C958.3281,339.2969 958.9375,339.4531 959.4063,339.7031 C959.8906,339.9844 960.0625,340.2031 960.1563,340.6094 C960.2188,341.0156 960.25,341.1406 960.3906,341.2656 C960.5313,341.4063 960.7656,341.5156 960.9844,341.5156 C961.25,341.5156 961.5156,341.375 961.6875,341.1563 C961.7969,341 961.8281,340.8125 961.8281,340.3906 L961.8281,338.9688 C961.8281,338.5313 961.8125,338.4063 961.7188,338.25 C961.5625,337.9844 961.2813,337.8438 960.9844,337.8438 C960.6875,337.8438 960.4844,337.9375 960.2656,338.25 L960.0938,338.1719 Z " fill="#000000"/><ellipse cx="983.25" cy="342" fill="#84BE84" rx="3" ry="3" style="stroke:#038048;stroke-width:1.0;"/><text fill="#000000" font-family="sans-serif" font-size="14" lengthAdjust="spacing" textLength="239" x="989.25" y="347.3467">ProductResponseDtoFactoryImpl</text><line style="stroke:#181818;stroke-width:0.5;" x1="852.5" x2="1321.5" y1="358.5" y2="358.5"/><ellipse cx="862.5" cy="372.1484" fill="#84BE84" rx="3" ry="3" style="stroke:#038048;stroke-width:1.0;"/><text fill="#000000" font-family="sans-serif" font-size="14" lengthAdjust="spacing" textLength="445" x="871.5" y="375.4951">ProductResponseDto create (ProductDomain productDomain)</text></g><!--class ProductDomainFactoryImpl--><g id="elem_ProductDomainFactoryImpl"><rect codeLine="68" fill="#FFC0CB" height="88.8906" id="ProductDomainFactoryImpl" rx="2.5" ry="2.5" style="stroke:#181818;stroke-width:0.5;" width="487" x="22.5" y="877"/><ellipse cx="157.75" cy="893" fill="#ADD1B2" rx="11" ry="11" style="stroke:#181818;stroke-width:1.0;"/><path d="M160.0938,888.6719 C159.1563,888.2344 158.5625,888.0938 157.6875,888.0938 C155.0625,888.0938 153.0625,890.1719 153.0625,892.8906 L153.0625,894.0156 C153.0625,896.5938 155.1719,898.4844 158.0625,898.4844 C159.2813,898.4844 160.4375,898.1875 161.1875,897.6406 C161.7656,897.2344 162.0938,896.7813 162.0938,896.3906 C162.0938,895.9375 161.7031,895.5469 161.2344,895.5469 C161.0156,895.5469 160.8125,895.625 160.625,895.8125 C160.1719,896.2969 160.1719,896.2969 159.9844,896.3906 C159.5625,896.6563 158.875,896.7813 158.1094,896.7813 C156.0625,896.7813 154.7656,895.6875 154.7656,893.9844 L154.7656,892.8906 C154.7656,891.1094 156.0156,889.7969 157.75,889.7969 C158.3281,889.7969 158.9375,889.9531 159.4063,890.2031 C159.8906,890.4844 160.0625,890.7031 160.1563,891.1094 C160.2188,891.5156 160.25,891.6406 160.3906,891.7656 C160.5313,891.9063 160.7656,892.0156 160.9844,892.0156 C161.25,892.0156 161.5156,891.875 161.6875,891.6563 C161.7969,891.5 161.8281,891.3125 161.8281,890.8906 L161.8281,889.4688 C161.8281,889.0313 161.8125,888.9063 161.7188,888.75 C161.5625,888.4844 161.2813,888.3438 160.9844,888.3438 C160.6875,888.3438 160.4844,888.4375 160.2656,888.75 L160.0938,888.6719 Z " fill="#000000"/><ellipse cx="183.25" cy="892.5" fill="#84BE84" rx="3" ry="3" style="stroke:#038048;stroke-width:1.0;"/><text fill="#000000" font-family="sans-serif" font-size="14" lengthAdjust="spacing" textLength="197" x="189.25" y="897.8467">ProductDomainFactoryImpl</text><line style="stroke:#181818;stroke-width:0.5;" x1="23.5" x2="508.5" y1="909" y2="909"/><ellipse cx="33.5" cy="922.6484" fill="#84BE84" rx="3" ry="3" style="stroke:#038048;stroke-width:1.0;"/><text fill="#000000" font-family="sans-serif" font-size="14" lengthAdjust="spacing" textLength="461" x="42.5" y="925.9951">ProductDomain create (Product product,Timestamp actualDate)</text><rect fill="#F24D5C" height="6" style="stroke:#C82930;stroke-width:1.0;" width="6" x="30.5" y="935.9453"/><text fill="#000000" font-family="sans-serif" font-size="14" lengthAdjust="spacing" textLength="370" x="42.5" y="942.292">Long productProductPkProductId (Product product)</text><rect fill="#F24D5C" height="6" style="stroke:#C82930;stroke-width:1.0;" width="6" x="30.5" y="952.2422"/><text fill="#000000" font-family="sans-serif" font-size="14" lengthAdjust="spacing" textLength="381" x="42.5" y="958.5889">Integer productProductPkPriceList (Product product)</text></g><!--reverse link ProductPort to ProductHandler--><g id="link_ProductPort_ProductHandler"><path d="M473,274.162 C473,287.247 473,301.316 473,313.919 " fill="none" id="ProductPort-backto-ProductHandler" style="stroke:#181818;stroke-width:1.0;stroke-dasharray:7.0,7.0;"/><polygon fill="none" points="466,274.137,473,254.137,480,274.137,466,274.137" style="stroke:#181818;stroke-width:1.0;"/></g><!--reverse link ProductHandler to ProductRepositoryPort--><g id="link_ProductHandler_ProductRepositoryPort"><path codeLine="14" d="M473,408.325 C473,424.344 473,441.28 473,454.87 " fill="none" id="ProductHandler-backto-ProductRepositoryPort" style="stroke:#181818;stroke-width:1.0;"/><polygon fill="none" points="473,395.178,469,401.178,473,407.178,477,401.178,473,395.178" style="stroke:#181818;stroke-width:1.0;"/></g><!--reverse link JpaRepository to ProductRepository--><g id="link_JpaRepository_ProductRepository"><path d="M1011.33,654.655 C1001.27,681.797 987.379,719.245 978.064,744.363 " fill="none" id="JpaRepository-backto-ProductRepository" style="stroke:#181818;stroke-width:1.0;"/><polygon fill="none" points="1004.91,651.848,1018.43,635.531,1018.03,656.717,1004.91,651.848" style="stroke:#181818;stroke-width:1.0;"/></g><!--reverse link ProductRepositoryPort to ProductDao--><g id="link_ProductRepositoryPort_ProductDao"><path d="M473,531.41 C473,544.22 473,558.086 473,570.906 " fill="none" id="ProductRepositoryPort-backto-ProductDao" style="stroke:#181818;stroke-width:1.0;stroke-dasharray:7.0,7.0;"/><polygon fill="none" points="466,531.218,473,511.218,480,531.218,466,531.218" style="stroke:#181818;stroke-width:1.0;"/></g><!--reverse link ProductDao to ProductRepository--><g id="link_ProductDao_ProductRepository"><path codeLine="38" d="M641.643,671.945 C721.473,696.297 813.525,724.377 879.472,744.495 " fill="none" id="ProductDao-backto-ProductRepository" style="stroke:#181818;stroke-width:1.0;"/><polygon fill="none" points="628.942,668.07,633.5133,673.647,640.4195,671.5723,635.8482,665.9953,628.942,668.07" style="stroke:#181818;stroke-width:1.0;"/></g><!--reverse link ProductDao to ProductDomainFactory--><g id="link_ProductDao_ProductDomainFactory"><path codeLine="39" d="M397.171,675.815 C373.707,692.931 348.195,711.541 325.961,727.76 " fill="none" id="ProductDao-backto-ProductDomainFactory" style="stroke:#181818;stroke-width:1.0;"/><polygon fill="none" points="407.788,668.07,400.5833,668.3749,398.0937,675.1426,405.2984,674.8377,407.788,668.07" style="stroke:#181818;stroke-width:1.0;"/></g><!--reverse link ProductController to ProductPort--><g id="link_ProductController_ProductPort"><path codeLine="59" d="M514.976,149.722 C505.647,166.454 495.942,183.857 488.217,197.711 " fill="none" id="ProductController-backto-ProductPort" style="stroke:#181818;stroke-width:1.0;"/><polygon fill="none" points="521.347,138.298,514.9316,141.5909,515.5037,148.7792,521.9191,145.4864,521.347,138.298" style="stroke:#181818;stroke-width:1.0;"/></g><!--reverse link ProductController to ProductResponseDtoFactory--><g id="link_ProductController_ProductResponseDtoFactory"><path codeLine="60" d="M751.241,141.216 C828.529,160.502 913.567,181.722 978.724,197.981 " fill="none" id="ProductController-backto-ProductResponseDtoFactory" style="stroke:#181818;stroke-width:1.0;"/><polygon fill="none" points="738.41,138.014,743.2631,143.3476,750.053,140.9192,745.1999,135.5856,738.41,138.014" style="stroke:#181818;stroke-width:1.0;"/></g><!--reverse link ProductResponseDtoFactory to ProductResponseDtoFactoryImpl--><g id="link_ProductResponseDtoFactory_ProductResponseDtoFactoryImpl"><path d="M1087,274.316 C1087,291.9 1087,311.242 1087,326.407 " fill="none" id="ProductResponseDtoFactory-backto-ProductResponseDtoFactoryImpl" style="stroke:#181818;stroke-width:1.0;stroke-dasharray:7.0,7.0;"/><polygon fill="none" points="1080,274.137,1087,254.137,1094,274.137,1080,274.137" style="stroke:#181818;stroke-width:1.0;"/></g><!--reverse link ProductDomainFactory to ProductDomainFactoryImpl--><g id="link_ProductDomainFactory_ProductDomainFactoryImpl"><path d="M266,837.531 C266,850.849 266,864.589 266,876.962 " fill="none" id="ProductDomainFactory-backto-ProductDomainFactoryImpl" style="stroke:#181818;stroke-width:1.0;stroke-dasharray:7.0,7.0;"/><polygon fill="none" points="259,837.207,266,817.207,273,837.207,259,837.207" style="stroke:#181818;stroke-width:1.0;"/></g><!--SRC=[nPHDRzim38Rl-XL4SidG1JliMWH8anLDaQ51Ds27RGV6PXmjjgH9ybeZQ7_xQCTsxDZf3bkncpuewdcfLzpAa80IupD8A5cJTSBjf39eCO78wjGir9QizAW2WlT260ns614CFg9KS4EF66c5CKnji9MU0fzQ6i1U2AKzHsKKn_e1nXDOMNAaF7gf5Imn8_jDHPP8vPjNgPEAdAisLbBjylM5sbXqtgP5tchtItvJldsBln1csjAxQ-Qb1srtSBV-mHHk0EWWfenKACH542CdNraTSgORL65C5eO6OpeWoCJ4b31U7RJIriCUnBYStvFHJdfjisB7zAtoHG1t9bU8yMLvSAuJhjG4DbA5C5fg5LM75-7RXV8KCShQCXFFbph0U8wUFik405drOVf6F0bnWg_7O-Y54nUIqzeDyelrqpUK3uTVGtHR2h_pcubdWALqle_zAbjLs5EU7O1vDAqX_wWk5-Ky9kP4MPVtF6KnBr5VhzGlbf31SdlIesTpERWrUDphAUBhbw_bxZdg4h1hwXCRx7lStNLs7NGexpLVteXhBHOVu3yOg26zzrUS2MYpTv-yBRWeQlw-hB4L086bWhvShGISmNs6a3QOnXu-UIjPRu9cbbfBAiXWL8y27ZI3stxbCyVie-FGLwF2ndqkTaOhHtElQrs77jrMreWxbLUARhr_ruOphRpLST5dgml6pTzjZkE63JjqvjnEGLijVr1U-koocsO24VaQ_Pv-fboUN5IPzmgBi8Q96k0DgnIOBqRq4hPAqerOy0-jojFxNKyF_FKZdJQBfiCFD6TQHolo7_o2CJUAncUlohohUqGdKN6cwWZTOpAWlFFq76FLJxy1]--></g></svg>