<?xml version="1.0" encoding="windows-1252" standalone="no"?>
<svg xmlns="http://www.w3.org/2000/svg" xmlns:xlink="http://www.w3.org/1999/xlink" contentStyleType="text/css" height="506px" preserveAspectRatio="none" style="width:2448px;height:506px;background:#FFFFFF;" version="1.1" viewBox="0 0 2448 506" width="2448px" zoomAndPan="magnify"><defs/><g><!--cluster Other Objects of Hexagonal Architecture--><g id="cluster_Other Objects of Hexagonal Architecture"><path d="M8.5,6 L340.5,6 A3.75,3.75 0 0 1 343,8.5 L350,28.2969 L2438.5,28.2969 A2.5,2.5 0 0 1 2441,30.7969 L2441,496.5 A2.5,2.5 0 0 1 2438.5,499 L8.5,499 A2.5,2.5 0 0 1 6,496.5 L6,8.5 A2.5,2.5 0 0 1 8.5,6 " fill="none" style="stroke:#000000;stroke-width:1.5;"/><line style="stroke:#000000;stroke-width:1.5;" x1="6" x2="350" y1="28.2969" y2="28.2969"/><text fill="#000000" font-family="sans-serif" font-size="14" font-weight="bold" lengthAdjust="spacing" textLength="331" x="10" y="20.9951">Other Objects of Hexagonal Architecture</text></g><!--class ProductCommand--><g id="elem_ProductCommand"><rect codeLine="6" fill="#98FB98" height="88.8906" id="ProductCommand" rx="2.5" ry="2.5" style="stroke:#181818;stroke-width:0.5;" width="216" x="2209" y="118.5"/><ellipse cx="2243.8" cy="134.5" fill="#ADD1B2" rx="11" ry="11" style="stroke:#181818;stroke-width:1.0;"/><path d="M2246.1438,130.1719 C2245.2063,129.7344 2244.6125,129.5938 2243.7375,129.5938 C2241.1125,129.5938 2239.1125,131.6719 2239.1125,134.3906 L2239.1125,135.5156 C2239.1125,138.0938 2241.2219,139.9844 2244.1125,139.9844 C2245.3313,139.9844 2246.4875,139.6875 2247.2375,139.1406 C2247.8156,138.7344 2248.1438,138.2813 2248.1438,137.8906 C2248.1438,137.4375 2247.7531,137.0469 2247.2844,137.0469 C2247.0656,137.0469 2246.8625,137.125 2246.675,137.3125 C2246.2219,137.7969 2246.2219,137.7969 2246.0344,137.8906 C2245.6125,138.1563 2244.925,138.2813 2244.1594,138.2813 C2242.1125,138.2813 2240.8156,137.1875 2240.8156,135.4844 L2240.8156,134.3906 C2240.8156,132.6094 2242.0656,131.2969 2243.8,131.2969 C2244.3781,131.2969 2244.9875,131.4531 2245.4563,131.7031 C2245.9406,131.9844 2246.1125,132.2031 2246.2063,132.6094 C2246.2688,133.0156 2246.3,133.1406 2246.4406,133.2656 C2246.5813,133.4063 2246.8156,133.5156 2247.0344,133.5156 C2247.3,133.5156 2247.5656,133.375 2247.7375,133.1563 C2247.8469,133 2247.8781,132.8125 2247.8781,132.3906 L2247.8781,130.9688 C2247.8781,130.5313 2247.8625,130.4063 2247.7688,130.25 C2247.6125,129.9844 2247.3313,129.8438 2247.0344,129.8438 C2246.7375,129.8438 2246.5344,129.9375 2246.3156,130.25 L2246.1438,130.1719 Z " fill="#000000"/><ellipse cx="2267.2" cy="134" fill="#84BE84" rx="3" ry="3" style="stroke:#038048;stroke-width:1.0;"/><text fill="#000000" font-family="sans-serif" font-size="14" lengthAdjust="spacing" textLength="129" x="2273.2" y="139.3467">ProductCommand</text><line style="stroke:#181818;stroke-width:0.5;" x1="2210" x2="2424" y1="150.5" y2="150.5"/><polygon fill="none" points="2220,159.1484,2224,163.1484,2220,167.1484,2216,163.1484" style="stroke:#B38D22;stroke-width:1.0;"/><text fill="#000000" font-family="sans-serif" font-size="14" lengthAdjust="spacing" textLength="190" x="2229" y="167.4951">LocalDateTime actualDate</text><polygon fill="none" points="2220,175.4453,2224,179.4453,2220,183.4453,2216,179.4453" style="stroke:#B38D22;stroke-width:1.0;"/><text fill="#000000" font-family="sans-serif" font-size="14" lengthAdjust="spacing" textLength="109" x="2229" y="183.792">Long productId</text><polygon fill="none" points="2220,191.7422,2224,195.7422,2220,199.7422,2216,195.7422" style="stroke:#B38D22;stroke-width:1.0;"/><text fill="#000000" font-family="sans-serif" font-size="14" lengthAdjust="spacing" textLength="112" x="2229" y="200.0889">Integer brandId</text></g><g id="elem_leyend2"><path d="M1902.5,120 L1902.5,205.6641 L2173.5,205.6641 L2173.5,130 L2163.5,120 L1902.5,120 " fill="#FEFFDD" style="stroke:#181818;stroke-width:0.5;"/><path d="M2163.5,120 L2163.5,130 L2173.5,130 L2163.5,120 " fill="#FEFFDD" style="stroke:#181818;stroke-width:1.0;"/><text fill="#000000" font-family="sans-serif" font-size="13" lengthAdjust="spacing" textLength="185" x="1908.5" y="137.0669">yellow -&gt; Presentation Layer</text><text fill="#000000" font-family="sans-serif" font-size="13" lengthAdjust="spacing" textLength="156" x="1908.5" y="152.1997">green -&gt; Business Layer</text><text fill="#000000" font-family="sans-serif" font-size="13" lengthAdjust="spacing" textLength="176" x="1908.5" y="167.3325">Pink -&gt; Infrastructure Layer</text><text fill="#000000" font-family="sans-serif" font-size="13" lengthAdjust="spacing" textLength="250" x="1908.5" y="182.4653">White -&gt; Java Core/Framework Objects</text><text fill="#000000" font-family="sans-serif" font-size="13" lengthAdjust="spacing" textLength="197" x="1908.5" y="197.5981">Magenta -&gt; Main of application</text></g><!--class ProductDomain--><g id="elem_ProductDomain"><rect codeLine="14" fill="#98FB98" height="129.4844" id="ProductDomain" rx="2.5" ry="2.5" style="stroke:#181818;stroke-width:0.5;" width="357" x="1847.5" y="349.5"/><ellipse cx="1960.75" cy="365.5" fill="#ADD1B2" rx="11" ry="11" style="stroke:#181818;stroke-width:1.0;"/><path d="M1963.0938,361.1719 C1962.1563,360.7344 1961.5625,360.5938 1960.6875,360.5938 C1958.0625,360.5938 1956.0625,362.6719 1956.0625,365.3906 L1956.0625,366.5156 C1956.0625,369.0938 1958.1719,370.9844 1961.0625,370.9844 C1962.2813,370.9844 1963.4375,370.6875 1964.1875,370.1406 C1964.7656,369.7344 1965.0938,369.2813 1965.0938,368.8906 C1965.0938,368.4375 1964.7031,368.0469 1964.2344,368.0469 C1964.0156,368.0469 1963.8125,368.125 1963.625,368.3125 C1963.1719,368.7969 1963.1719,368.7969 1962.9844,368.8906 C1962.5625,369.1563 1961.875,369.2813 1961.1094,369.2813 C1959.0625,369.2813 1957.7656,368.1875 1957.7656,366.4844 L1957.7656,365.3906 C1957.7656,363.6094 1959.0156,362.2969 1960.75,362.2969 C1961.3281,362.2969 1961.9375,362.4531 1962.4063,362.7031 C1962.8906,362.9844 1963.0625,363.2031 1963.1563,363.6094 C1963.2188,364.0156 1963.25,364.1406 1963.3906,364.2656 C1963.5313,364.4063 1963.7656,364.5156 1963.9844,364.5156 C1964.25,364.5156 1964.5156,364.375 1964.6875,364.1563 C1964.7969,364 1964.8281,363.8125 1964.8281,363.3906 L1964.8281,361.9688 C1964.8281,361.5313 1964.8125,361.4063 1964.7188,361.25 C1964.5625,360.9844 1964.2813,360.8438 1963.9844,360.8438 C1963.6875,360.8438 1963.4844,360.9375 1963.2656,361.25 L1963.0938,361.1719 Z " fill="#000000"/><ellipse cx="1986.25" cy="365" fill="#84BE84" rx="3" ry="3" style="stroke:#038048;stroke-width:1.0;"/><text fill="#000000" font-family="sans-serif" font-size="14" lengthAdjust="spacing" textLength="111" x="1992.25" y="370.3467">ProductDomain</text><line style="stroke:#181818;stroke-width:0.5;" x1="1848.5" x2="2203.5" y1="381.5" y2="381.5"/><rect fill="none" height="6" style="stroke:#C82930;stroke-width:1.0;" width="6" x="1855.5" y="392.1484"/><text fill="#000000" font-family="sans-serif" font-size="14" lengthAdjust="spacing" textLength="143" x="1867.5" y="398.4951">Integer rateApplied</text><rect fill="none" height="6" style="stroke:#C82930;stroke-width:1.0;" width="6" x="1855.5" y="408.4453"/><text fill="#000000" font-family="sans-serif" font-size="14" lengthAdjust="spacing" textLength="122" x="1867.5" y="414.792">Double finalPrice</text><rect fill="none" height="6" style="stroke:#C82930;stroke-width:1.0;" width="6" x="1855.5" y="424.7422"/><text fill="#000000" font-family="sans-serif" font-size="14" lengthAdjust="spacing" textLength="110" x="1867.5" y="431.0889">String currency</text><rect fill="none" height="6" style="stroke:#C82930;stroke-width:1.0;" width="6" x="1855.5" y="441.0391"/><text fill="#000000" font-family="sans-serif" font-size="14" lengthAdjust="spacing" textLength="111" x="1867.5" y="447.3857">Integer priority</text><line style="stroke:#181818;stroke-width:0.5;" x1="1848.5" x2="2203.5" y1="454.6875" y2="454.6875"/><ellipse cx="1858.5" cy="468.3359" fill="#84BE84" rx="3" ry="3" style="stroke:#038048;stroke-width:1.0;"/><text fill="#000000" font-family="sans-serif" font-size="14" lengthAdjust="spacing" textLength="331" x="1867.5" y="471.6826">int compareTo (ProductDomain otherProduct)</text></g><!--class Comparable--><g id="elem_Comparable"><rect fill="#F1F1F1" height="32" id="Comparable" rx="2.5" ry="2.5" style="stroke:#181818;stroke-width:0.5;" width="120" x="1747" y="147"/><ellipse cx="1762" cy="163" fill="#B4A7E5" rx="11" ry="11" style="stroke:#181818;stroke-width:1.0;"/><path d="M1762.9531,159.7813 L1764.6719,159.7813 C1765.0625,159.7813 1765.25,159.75 1765.375,159.6719 C1765.6406,159.5156 1765.7813,159.2344 1765.7813,158.9375 C1765.7813,158.6719 1765.6719,158.4063 1765.4375,158.2344 C1765.2656,158.125 1765.125,158.0938 1764.6719,158.0938 L1759.5313,158.0938 C1759.0938,158.0938 1758.9688,158.1094 1758.8125,158.2031 C1758.5625,158.3594 1758.4063,158.6563 1758.4063,158.9375 C1758.4063,159.2188 1758.5469,159.4688 1758.7656,159.6406 C1758.9219,159.75 1759.1094,159.7813 1759.5313,159.7813 L1761.25,159.7813 L1761.25,166.2969 L1759.5313,166.2969 C1759.0938,166.2969 1758.9688,166.3125 1758.8125,166.4219 C1758.5625,166.5781 1758.4063,166.8594 1758.4063,167.1563 C1758.4063,167.4063 1758.5469,167.6719 1758.7656,167.8281 C1758.9219,167.9531 1759.125,168 1759.5313,168 L1764.6719,168 C1765.4219,168 1765.7813,167.7188 1765.7813,167.1563 C1765.7813,166.875 1765.6719,166.625 1765.4375,166.4531 C1765.2656,166.3281 1765.125,166.2969 1764.6719,166.2969 L1762.9531,166.2969 L1762.9531,159.7813 Z " fill="#000000"/><text fill="#000000" font-family="sans-serif" font-size="14" font-style="italic" lengthAdjust="spacing" textLength="88" x="1776" y="167.8467">Comparable</text></g><!--class ProductControllerIntegrationTest--><g id="elem_ProductControllerIntegrationTest"><rect codeLine="23" fill="#FFFF00" height="243.5625" id="ProductControllerIntegrationTest" rx="2.5" ry="2.5" style="stroke:#181818;stroke-width:0.5;" width="760" x="952" y="41"/><ellipse cx="1201.25" cy="57" fill="#ADD1B2" rx="11" ry="11" style="stroke:#181818;stroke-width:1.0;"/><path d="M1203.5938,52.6719 C1202.6563,52.2344 1202.0625,52.0938 1201.1875,52.0938 C1198.5625,52.0938 1196.5625,54.1719 1196.5625,56.8906 L1196.5625,58.0156 C1196.5625,60.5938 1198.6719,62.4844 1201.5625,62.4844 C1202.7813,62.4844 1203.9375,62.1875 1204.6875,61.6406 C1205.2656,61.2344 1205.5938,60.7813 1205.5938,60.3906 C1205.5938,59.9375 1205.2031,59.5469 1204.7344,59.5469 C1204.5156,59.5469 1204.3125,59.625 1204.125,59.8125 C1203.6719,60.2969 1203.6719,60.2969 1203.4844,60.3906 C1203.0625,60.6563 1202.375,60.7813 1201.6094,60.7813 C1199.5625,60.7813 1198.2656,59.6875 1198.2656,57.9844 L1198.2656,56.8906 C1198.2656,55.1094 1199.5156,53.7969 1201.25,53.7969 C1201.8281,53.7969 1202.4375,53.9531 1202.9063,54.2031 C1203.3906,54.4844 1203.5625,54.7031 1203.6563,55.1094 C1203.7188,55.5156 1203.75,55.6406 1203.8906,55.7656 C1204.0313,55.9063 1204.2656,56.0156 1204.4844,56.0156 C1204.75,56.0156 1205.0156,55.875 1205.1875,55.6563 C1205.2969,55.5 1205.3281,55.3125 1205.3281,54.8906 L1205.3281,53.4688 C1205.3281,53.0313 1205.3125,52.9063 1205.2188,52.75 C1205.0625,52.4844 1204.7813,52.3438 1204.4844,52.3438 C1204.1875,52.3438 1203.9844,52.4375 1203.7656,52.75 L1203.5938,52.6719 Z " fill="#000000"/><polygon fill="#4177AF" points="1226.75,52.5,1222.75,58.5,1230.75,58.5" style="stroke:#1963A0;stroke-width:1.0;"/><text fill="#000000" font-family="sans-serif" font-size="14" lengthAdjust="spacing" textLength="242" x="1232.75" y="61.8467">ProductControllerIntegrationTest</text><line style="stroke:#181818;stroke-width:0.5;" x1="953" x2="1711" y1="73" y2="73"/><rect fill="none" height="6" style="stroke:#C82930;stroke-width:1.0;" width="6" x="960" y="83.6484"/><text fill="#000000" font-family="sans-serif" font-size="14" lengthAdjust="spacing" textLength="272" x="972" y="89.9951">TestRestTemplate testRestTemplate</text><rect fill="none" height="6" style="stroke:#C82930;stroke-width:1.0;" width="6" x="960" y="99.9453"/><text fill="#000000" font-family="sans-serif" font-size="14" lengthAdjust="spacing" textLength="121" x="972" y="106.292">Integer localPort</text><line style="stroke:#181818;stroke-width:0.5;" x1="953" x2="1711" y1="113.5938" y2="113.5938"/><polygon fill="#4177AF" points="963,123.2422,959,129.2422,967,129.2422" style="stroke:#1963A0;stroke-width:1.0;"/><text fill="#000000" font-family="sans-serif" font-size="14" lengthAdjust="spacing" textLength="324" x="972" y="130.5889">void productFinalPrizeForDay14Hour10Test ()</text><polygon fill="#4177AF" points="963,139.5391,959,145.5391,967,145.5391" style="stroke:#1963A0;stroke-width:1.0;"/><text fill="#000000" font-family="sans-serif" font-size="14" lengthAdjust="spacing" textLength="324" x="972" y="146.8857">void productFinalPrizeForDay14Hour16Test ()</text><polygon fill="#4177AF" points="963,155.8359,959,161.8359,967,161.8359" style="stroke:#1963A0;stroke-width:1.0;"/><text fill="#000000" font-family="sans-serif" font-size="14" lengthAdjust="spacing" textLength="323" x="972" y="163.1826">void productFinalPrizeForDay14Hour21Test ()</text><polygon fill="#4177AF" points="963,172.1328,959,178.1328,967,178.1328" style="stroke:#1963A0;stroke-width:1.0;"/><text fill="#000000" font-family="sans-serif" font-size="14" lengthAdjust="spacing" textLength="325" x="972" y="179.4795">void productFinalPrizeForDay15Hour10Test ()</text><polygon fill="#4177AF" points="963,188.4297,959,194.4297,967,194.4297" style="stroke:#1963A0;stroke-width:1.0;"/><text fill="#000000" font-family="sans-serif" font-size="14" lengthAdjust="spacing" textLength="324" x="972" y="195.7764">void productFinalPrizeForDay16Hour21Test ()</text><rect fill="#F24D5C" height="6" style="stroke:#C82930;stroke-width:1.0;" width="6" x="960" y="205.7266"/><text fill="#000000" font-family="sans-serif" font-size="14" lengthAdjust="spacing" textLength="686" x="972" y="212.0732">ResponseEntity&lt;ProductResponseDto&gt; callToController (ProductRequestDto productBaseDto)</text><rect fill="#F24D5C" height="6" style="stroke:#C82930;stroke-width:1.0;" width="6" x="960" y="222.0234"/><text fill="#000000" font-family="sans-serif" font-size="14" lengthAdjust="spacing" textLength="734" x="972" y="228.3701">UriComponentsBuilder queryParamBuilder (LocalDateTime actualDate,Long productId,Integer brandId)</text><rect fill="#F24D5C" height="6" style="stroke:#C82930;stroke-width:1.0;" width="6" x="960" y="238.3203"/><text fill="#000000" font-family="sans-serif" font-size="14" lengthAdjust="spacing" textLength="568" x="972" y="244.667">ResponseEntity&lt;ProductResponseDto&gt; doGet (UriComponentsBuilder builder)</text><rect fill="#F24D5C" height="6" style="stroke:#C82930;stroke-width:1.0;" width="6" x="960" y="254.6172"/><text fill="#000000" font-family="sans-serif" font-size="14" lengthAdjust="spacing" textLength="372" x="972" y="260.9639">ProductRequestDto createProduct (int day,int hour)</text><rect fill="#F24D5C" height="6" style="stroke:#C82930;stroke-width:1.0;" width="6" x="960" y="270.9141"/><text fill="#000000" font-family="sans-serif" font-size="14" lengthAdjust="spacing" textLength="317" x="972" y="277.2607">LocalDateTime createDate (int day,int hour)</text></g><!--class Main--><g id="elem_Main"><rect codeLine="38" fill="#FF00FF" height="56.2969" id="Main" rx="2.5" ry="2.5" style="stroke:#181818;stroke-width:0.5;" width="187" x="729.5" y="135"/><ellipse cx="796.75" cy="151" fill="#ADD1B2" rx="11" ry="11" style="stroke:#181818;stroke-width:1.0;"/><path d="M799.0938,146.6719 C798.1563,146.2344 797.5625,146.0938 796.6875,146.0938 C794.0625,146.0938 792.0625,148.1719 792.0625,150.8906 L792.0625,152.0156 C792.0625,154.5938 794.1719,156.4844 797.0625,156.4844 C798.2813,156.4844 799.4375,156.1875 800.1875,155.6406 C800.7656,155.2344 801.0938,154.7813 801.0938,154.3906 C801.0938,153.9375 800.7031,153.5469 800.2344,153.5469 C800.0156,153.5469 799.8125,153.625 799.625,153.8125 C799.1719,154.2969 799.1719,154.2969 798.9844,154.3906 C798.5625,154.6563 797.875,154.7813 797.1094,154.7813 C795.0625,154.7813 793.7656,153.6875 793.7656,151.9844 L793.7656,150.8906 C793.7656,149.1094 795.0156,147.7969 796.75,147.7969 C797.3281,147.7969 797.9375,147.9531 798.4063,148.2031 C798.8906,148.4844 799.0625,148.7031 799.1563,149.1094 C799.2188,149.5156 799.25,149.6406 799.3906,149.7656 C799.5313,149.9063 799.7656,150.0156 799.9844,150.0156 C800.25,150.0156 800.5156,149.875 800.6875,149.6563 C800.7969,149.5 800.8281,149.3125 800.8281,148.8906 L800.8281,147.4688 C800.8281,147.0313 800.8125,146.9063 800.7188,146.75 C800.5625,146.4844 800.2813,146.3438 799.9844,146.3438 C799.6875,146.3438 799.4844,146.4375 799.2656,146.75 L799.0938,146.6719 Z " fill="#000000"/><ellipse cx="822.25" cy="150.5" fill="#84BE84" rx="3" ry="3" style="stroke:#038048;stroke-width:1.0;"/><text fill="#000000" font-family="sans-serif" font-size="14" lengthAdjust="spacing" textLength="33" x="828.25" y="155.8467">Main</text><line style="stroke:#181818;stroke-width:0.5;" x1="730.5" x2="915.5" y1="167" y2="167"/><ellipse cx="740.5" cy="180.6484" fill="#84BE84" rx="3" ry="3" style="stroke:#038048;stroke-width:1.0;"/><text fill="#000000" font-family="sans-serif" font-size="14" lengthAdjust="spacing" text-decoration="underline" textLength="161" x="749.5" y="183.9951">void main (String args)</text></g><!--class ProductRequestDto--><g id="elem_ProductRequestDto"><rect codeLine="42" fill="#FFFF00" height="88.8906" id="ProductRequestDto" rx="2.5" ry="2.5" style="stroke:#181818;stroke-width:0.5;" width="216" x="478" y="118.5"/><ellipse cx="506.95" cy="134.5" fill="#ADD1B2" rx="11" ry="11" style="stroke:#181818;stroke-width:1.0;"/><path d="M509.2938,130.1719 C508.3563,129.7344 507.7625,129.5938 506.8875,129.5938 C504.2625,129.5938 502.2625,131.6719 502.2625,134.3906 L502.2625,135.5156 C502.2625,138.0938 504.3719,139.9844 507.2625,139.9844 C508.4813,139.9844 509.6375,139.6875 510.3875,139.1406 C510.9656,138.7344 511.2938,138.2813 511.2938,137.8906 C511.2938,137.4375 510.9031,137.0469 510.4344,137.0469 C510.2156,137.0469 510.0125,137.125 509.825,137.3125 C509.3719,137.7969 509.3719,137.7969 509.1844,137.8906 C508.7625,138.1563 508.075,138.2813 507.3094,138.2813 C505.2625,138.2813 503.9656,137.1875 503.9656,135.4844 L503.9656,134.3906 C503.9656,132.6094 505.2156,131.2969 506.95,131.2969 C507.5281,131.2969 508.1375,131.4531 508.6063,131.7031 C509.0906,131.9844 509.2625,132.2031 509.3563,132.6094 C509.4188,133.0156 509.45,133.1406 509.5906,133.2656 C509.7313,133.4063 509.9656,133.5156 510.1844,133.5156 C510.45,133.5156 510.7156,133.375 510.8875,133.1563 C510.9969,133 511.0281,132.8125 511.0281,132.3906 L511.0281,130.9688 C511.0281,130.5313 511.0125,130.4063 510.9188,130.25 C510.7625,129.9844 510.4813,129.8438 510.1844,129.8438 C509.8875,129.8438 509.6844,129.9375 509.4656,130.25 L509.2938,130.1719 Z " fill="#000000"/><ellipse cx="529.05" cy="134" fill="#84BE84" rx="3" ry="3" style="stroke:#038048;stroke-width:1.0;"/><text fill="#000000" font-family="sans-serif" font-size="14" lengthAdjust="spacing" textLength="142" x="535.05" y="139.3467">ProductRequestDto</text><line style="stroke:#181818;stroke-width:0.5;" x1="479" x2="693" y1="150.5" y2="150.5"/><polygon fill="none" points="489,159.1484,493,163.1484,489,167.1484,485,163.1484" style="stroke:#B38D22;stroke-width:1.0;"/><text fill="#000000" font-family="sans-serif" font-size="14" lengthAdjust="spacing" textLength="190" x="498" y="167.4951">LocalDateTime actualDate</text><polygon fill="none" points="489,175.4453,493,179.4453,489,183.4453,485,179.4453" style="stroke:#B38D22;stroke-width:1.0;"/><text fill="#000000" font-family="sans-serif" font-size="14" lengthAdjust="spacing" textLength="109" x="498" y="183.792">Long productId</text><polygon fill="none" points="489,191.7422,493,195.7422,489,199.7422,485,195.7422" style="stroke:#B38D22;stroke-width:1.0;"/><text fill="#000000" font-family="sans-serif" font-size="14" lengthAdjust="spacing" textLength="112" x="498" y="200.0889">Integer brandId</text></g><!--class ProductResponseDto--><g id="elem_ProductResponseDto"><rect codeLine="49" fill="#FFFF00" height="88.8906" id="ProductResponseDto" rx="2.5" ry="2.5" style="stroke:#181818;stroke-width:0.5;" width="196" x="860" y="369.5"/><ellipse cx="875" cy="385.5" fill="#ADD1B2" rx="11" ry="11" style="stroke:#181818;stroke-width:1.0;"/><path d="M877.3438,381.1719 C876.4063,380.7344 875.8125,380.5938 874.9375,380.5938 C872.3125,380.5938 870.3125,382.6719 870.3125,385.3906 L870.3125,386.5156 C870.3125,389.0938 872.4219,390.9844 875.3125,390.9844 C876.5313,390.9844 877.6875,390.6875 878.4375,390.1406 C879.0156,389.7344 879.3438,389.2813 879.3438,388.8906 C879.3438,388.4375 878.9531,388.0469 878.4844,388.0469 C878.2656,388.0469 878.0625,388.125 877.875,388.3125 C877.4219,388.7969 877.4219,388.7969 877.2344,388.8906 C876.8125,389.1563 876.125,389.2813 875.3594,389.2813 C873.3125,389.2813 872.0156,388.1875 872.0156,386.4844 L872.0156,385.3906 C872.0156,383.6094 873.2656,382.2969 875,382.2969 C875.5781,382.2969 876.1875,382.4531 876.6563,382.7031 C877.1406,382.9844 877.3125,383.2031 877.4063,383.6094 C877.4688,384.0156 877.5,384.1406 877.6406,384.2656 C877.7813,384.4063 878.0156,384.5156 878.2344,384.5156 C878.5,384.5156 878.7656,384.375 878.9375,384.1563 C879.0469,384 879.0781,383.8125 879.0781,383.3906 L879.0781,381.9688 C879.0781,381.5313 879.0625,381.4063 878.9688,381.25 C878.8125,380.9844 878.5313,380.8438 878.2344,380.8438 C877.9375,380.8438 877.7344,380.9375 877.5156,381.25 L877.3438,381.1719 Z " fill="#000000"/><ellipse cx="894" cy="385" fill="#84BE84" rx="3" ry="3" style="stroke:#038048;stroke-width:1.0;"/><text fill="#000000" font-family="sans-serif" font-size="14" lengthAdjust="spacing" textLength="153" x="900" y="390.3467">ProductResponseDto</text><line style="stroke:#181818;stroke-width:0.5;" x1="861" x2="1055" y1="401.5" y2="401.5"/><rect fill="none" height="6" style="stroke:#C82930;stroke-width:1.0;" width="6" x="868" y="412.1484"/><text fill="#000000" font-family="sans-serif" font-size="14" lengthAdjust="spacing" textLength="143" x="880" y="418.4951">Integer rateApplied</text><rect fill="none" height="6" style="stroke:#C82930;stroke-width:1.0;" width="6" x="868" y="428.4453"/><text fill="#000000" font-family="sans-serif" font-size="14" lengthAdjust="spacing" textLength="122" x="880" y="434.792">Double finalPrice</text><rect fill="none" height="6" style="stroke:#C82930;stroke-width:1.0;" width="6" x="868" y="444.7422"/><text fill="#000000" font-family="sans-serif" font-size="14" lengthAdjust="spacing" textLength="110" x="880" y="451.0889">String currency</text></g><!--class CustomPhysicalNamingStrategy--><g id="elem_CustomPhysicalNamingStrategy"><rect codeLine="55" fill="#FFC0CB" height="137.7813" id="CustomPhysicalNamingStrategy" rx="2.5" ry="2.5" style="stroke:#181818;stroke-width:0.5;" width="622" x="203" y="345"/><ellipse cx="389.75" cy="361" fill="#ADD1B2" rx="11" ry="11" style="stroke:#181818;stroke-width:1.0;"/><path d="M392.0938,356.6719 C391.1563,356.2344 390.5625,356.0938 389.6875,356.0938 C387.0625,356.0938 385.0625,358.1719 385.0625,360.8906 L385.0625,362.0156 C385.0625,364.5938 387.1719,366.4844 390.0625,366.4844 C391.2813,366.4844 392.4375,366.1875 393.1875,365.6406 C393.7656,365.2344 394.0938,364.7813 394.0938,364.3906 C394.0938,363.9375 393.7031,363.5469 393.2344,363.5469 C393.0156,363.5469 392.8125,363.625 392.625,363.8125 C392.1719,364.2969 392.1719,364.2969 391.9844,364.3906 C391.5625,364.6563 390.875,364.7813 390.1094,364.7813 C388.0625,364.7813 386.7656,363.6875 386.7656,361.9844 L386.7656,360.8906 C386.7656,359.1094 388.0156,357.7969 389.75,357.7969 C390.3281,357.7969 390.9375,357.9531 391.4063,358.2031 C391.8906,358.4844 392.0625,358.7031 392.1563,359.1094 C392.2188,359.5156 392.25,359.6406 392.3906,359.7656 C392.5313,359.9063 392.7656,360.0156 392.9844,360.0156 C393.25,360.0156 393.5156,359.875 393.6875,359.6563 C393.7969,359.5 393.8281,359.3125 393.8281,358.8906 L393.8281,357.4688 C393.8281,357.0313 393.8125,356.9063 393.7188,356.75 C393.5625,356.4844 393.2813,356.3438 392.9844,356.3438 C392.6875,356.3438 392.4844,356.4375 392.2656,356.75 L392.0938,356.6719 Z " fill="#000000"/><ellipse cx="415.25" cy="360.5" fill="#84BE84" rx="3" ry="3" style="stroke:#038048;stroke-width:1.0;"/><text fill="#000000" font-family="sans-serif" font-size="14" lengthAdjust="spacing" textLength="229" x="421.25" y="365.8467">CustomPhysicalNamingStrategy</text><line style="stroke:#181818;stroke-width:0.5;" x1="204" x2="824" y1="377" y2="377"/><ellipse cx="214" cy="390.6484" fill="#84BE84" rx="3" ry="3" style="stroke:#038048;stroke-width:1.0;"/><text fill="#000000" font-family="sans-serif" font-size="14" lengthAdjust="spacing" textLength="581" x="223" y="393.9951">Identifier toPhysicalCatalogName (Identifier identifier,JdbcEnvironment jdbcEnv)</text><ellipse cx="214" cy="406.9453" fill="#84BE84" rx="3" ry="3" style="stroke:#038048;stroke-width:1.0;"/><text fill="#000000" font-family="sans-serif" font-size="14" lengthAdjust="spacing" textLength="580" x="223" y="410.292">Identifier toPhysicalColumnName (Identifier identifier,JdbcEnvironment jdbcEnv)</text><ellipse cx="214" cy="423.2422" fill="#84BE84" rx="3" ry="3" style="stroke:#038048;stroke-width:1.0;"/><text fill="#000000" font-family="sans-serif" font-size="14" lengthAdjust="spacing" textLength="583" x="223" y="426.5889">Identifier toPhysicalSchemaName (Identifier identifier,JdbcEnvironment jdbcEnv)</text><ellipse cx="214" cy="439.5391" fill="#84BE84" rx="3" ry="3" style="stroke:#038048;stroke-width:1.0;"/><text fill="#000000" font-family="sans-serif" font-size="14" lengthAdjust="spacing" textLength="596" x="223" y="442.8857">Identifier toPhysicalSequenceName (Identifier identifier,JdbcEnvironment jdbcEnv)</text><ellipse cx="214" cy="455.8359" fill="#84BE84" rx="3" ry="3" style="stroke:#038048;stroke-width:1.0;"/><text fill="#000000" font-family="sans-serif" font-size="14" lengthAdjust="spacing" textLength="566" x="223" y="459.1826">Identifier toPhysicalTableName (Identifier identifier,JdbcEnvironment jdbcEnv)</text><rect fill="#F24D5C" height="6" style="stroke:#C82930;stroke-width:1.0;" width="6" x="211" y="469.1328"/><text fill="#000000" font-family="sans-serif" font-size="14" lengthAdjust="spacing" textLength="484" x="223" y="475.4795">Identifier convertToSnakeCase (Identifier identifierFromHibernate)</text></g><!--class PhysicalNamingStrategy--><g id="elem_PhysicalNamingStrategy"><rect fill="#F1F1F1" height="32" id="PhysicalNamingStrategy" rx="2.5" ry="2.5" style="stroke:#181818;stroke-width:0.5;" width="204" x="239" y="147"/><ellipse cx="254" cy="163" fill="#B4A7E5" rx="11" ry="11" style="stroke:#181818;stroke-width:1.0;"/><path d="M254.9531,159.7813 L256.6719,159.7813 C257.0625,159.7813 257.25,159.75 257.375,159.6719 C257.6406,159.5156 257.7813,159.2344 257.7813,158.9375 C257.7813,158.6719 257.6719,158.4063 257.4375,158.2344 C257.2656,158.125 257.125,158.0938 256.6719,158.0938 L251.5313,158.0938 C251.0938,158.0938 250.9688,158.1094 250.8125,158.2031 C250.5625,158.3594 250.4063,158.6563 250.4063,158.9375 C250.4063,159.2188 250.5469,159.4688 250.7656,159.6406 C250.9219,159.75 251.1094,159.7813 251.5313,159.7813 L253.25,159.7813 L253.25,166.2969 L251.5313,166.2969 C251.0938,166.2969 250.9688,166.3125 250.8125,166.4219 C250.5625,166.5781 250.4063,166.8594 250.4063,167.1563 C250.4063,167.4063 250.5469,167.6719 250.7656,167.8281 C250.9219,167.9531 251.125,168 251.5313,168 L256.6719,168 C257.4219,168 257.7813,167.7188 257.7813,167.1563 C257.7813,166.875 257.6719,166.625 257.4375,166.4531 C257.2656,166.3281 257.125,166.2969 256.6719,166.2969 L254.9531,166.2969 L254.9531,159.7813 Z " fill="#000000"/><text fill="#000000" font-family="sans-serif" font-size="14" font-style="italic" lengthAdjust="spacing" textLength="172" x="268" y="167.8467">PhysicalNamingStrategy</text></g><!--class Product--><g id="elem_Product"><rect codeLine="64" fill="#FFC0CB" height="154.0781" id="Product" rx="2.5" ry="2.5" style="stroke:#181818;stroke-width:0.5;" width="182" x="22" y="86"/><ellipse cx="75.25" cy="102" fill="#ADD1B2" rx="11" ry="11" style="stroke:#181818;stroke-width:1.0;"/><path d="M77.5938,97.6719 C76.6563,97.2344 76.0625,97.0938 75.1875,97.0938 C72.5625,97.0938 70.5625,99.1719 70.5625,101.8906 L70.5625,103.0156 C70.5625,105.5938 72.6719,107.4844 75.5625,107.4844 C76.7813,107.4844 77.9375,107.1875 78.6875,106.6406 C79.2656,106.2344 79.5938,105.7813 79.5938,105.3906 C79.5938,104.9375 79.2031,104.5469 78.7344,104.5469 C78.5156,104.5469 78.3125,104.625 78.125,104.8125 C77.6719,105.2969 77.6719,105.2969 77.4844,105.3906 C77.0625,105.6563 76.375,105.7813 75.6094,105.7813 C73.5625,105.7813 72.2656,104.6875 72.2656,102.9844 L72.2656,101.8906 C72.2656,100.1094 73.5156,98.7969 75.25,98.7969 C75.8281,98.7969 76.4375,98.9531 76.9063,99.2031 C77.3906,99.4844 77.5625,99.7031 77.6563,100.1094 C77.7188,100.5156 77.75,100.6406 77.8906,100.7656 C78.0313,100.9063 78.2656,101.0156 78.4844,101.0156 C78.75,101.0156 79.0156,100.875 79.1875,100.6563 C79.2969,100.5 79.3281,100.3125 79.3281,99.8906 L79.3281,98.4688 C79.3281,98.0313 79.3125,97.9063 79.2188,97.75 C79.0625,97.4844 78.7813,97.3438 78.4844,97.3438 C78.1875,97.3438 77.9844,97.4375 77.7656,97.75 L77.5938,97.6719 Z " fill="#000000"/><ellipse cx="100.75" cy="101.5" fill="#84BE84" rx="3" ry="3" style="stroke:#038048;stroke-width:1.0;"/><text fill="#000000" font-family="sans-serif" font-size="14" lengthAdjust="spacing" textLength="56" x="106.75" y="106.8467">Product</text><line style="stroke:#181818;stroke-width:0.5;" x1="23" x2="203" y1="118" y2="118"/><rect fill="none" height="6" style="stroke:#C82930;stroke-width:1.0;" width="6" x="30" y="128.6484"/><text fill="#000000" font-family="sans-serif" font-size="14" lengthAdjust="spacing" textLength="153" x="42" y="134.9951">ProductPk productPk</text><rect fill="none" height="6" style="stroke:#C82930;stroke-width:1.0;" width="6" x="30" y="144.9453"/><text fill="#000000" font-family="sans-serif" font-size="14" lengthAdjust="spacing" textLength="112" x="42" y="151.292">Integer brandId</text><rect fill="none" height="6" style="stroke:#C82930;stroke-width:1.0;" width="6" x="30" y="161.2422"/><text fill="#000000" font-family="sans-serif" font-size="14" lengthAdjust="spacing" textLength="111" x="42" y="167.5889">Integer priority</text><rect fill="none" height="6" style="stroke:#C82930;stroke-width:1.0;" width="6" x="30" y="177.5391"/><text fill="#000000" font-family="sans-serif" font-size="14" lengthAdjust="spacing" textLength="156" x="42" y="183.8857">Timestamp startDate</text><rect fill="none" height="6" style="stroke:#C82930;stroke-width:1.0;" width="6" x="30" y="193.8359"/><text fill="#000000" font-family="sans-serif" font-size="14" lengthAdjust="spacing" textLength="148" x="42" y="200.1826">Timestamp endDate</text><rect fill="none" height="6" style="stroke:#C82930;stroke-width:1.0;" width="6" x="30" y="210.1328"/><text fill="#000000" font-family="sans-serif" font-size="14" lengthAdjust="spacing" textLength="92" x="42" y="216.4795">Double price</text><rect fill="none" height="6" style="stroke:#C82930;stroke-width:1.0;" width="6" x="30" y="226.4297"/><text fill="#000000" font-family="sans-serif" font-size="14" lengthAdjust="spacing" textLength="96" x="42" y="232.7764">Currency curr</text></g><!--class ProductPk--><g id="elem_ProductPk"><rect codeLine="76" fill="#FFC0CB" height="72.5938" id="ProductPk" rx="2.5" ry="2.5" style="stroke:#181818;stroke-width:0.5;" width="146" x="22" y="377.5"/><ellipse cx="50.05" cy="393.5" fill="#ADD1B2" rx="11" ry="11" style="stroke:#181818;stroke-width:1.0;"/><path d="M52.3938,389.1719 C51.4563,388.7344 50.8625,388.5938 49.9875,388.5938 C47.3625,388.5938 45.3625,390.6719 45.3625,393.3906 L45.3625,394.5156 C45.3625,397.0938 47.4719,398.9844 50.3625,398.9844 C51.5813,398.9844 52.7375,398.6875 53.4875,398.1406 C54.0656,397.7344 54.3938,397.2813 54.3938,396.8906 C54.3938,396.4375 54.0031,396.0469 53.5344,396.0469 C53.3156,396.0469 53.1125,396.125 52.925,396.3125 C52.4719,396.7969 52.4719,396.7969 52.2844,396.8906 C51.8625,397.1563 51.175,397.2813 50.4094,397.2813 C48.3625,397.2813 47.0656,396.1875 47.0656,394.4844 L47.0656,393.3906 C47.0656,391.6094 48.3156,390.2969 50.05,390.2969 C50.6281,390.2969 51.2375,390.4531 51.7063,390.7031 C52.1906,390.9844 52.3625,391.2031 52.4563,391.6094 C52.5188,392.0156 52.55,392.1406 52.6906,392.2656 C52.8313,392.4063 53.0656,392.5156 53.2844,392.5156 C53.55,392.5156 53.8156,392.375 53.9875,392.1563 C54.0969,392 54.1281,391.8125 54.1281,391.3906 L54.1281,389.9688 C54.1281,389.5313 54.1125,389.4063 54.0188,389.25 C53.8625,388.9844 53.5813,388.8438 53.2844,388.8438 C52.9875,388.8438 52.7844,388.9375 52.5656,389.25 L52.3938,389.1719 Z " fill="#000000"/><ellipse cx="71.95" cy="393" fill="#84BE84" rx="3" ry="3" style="stroke:#038048;stroke-width:1.0;"/><text fill="#000000" font-family="sans-serif" font-size="14" lengthAdjust="spacing" textLength="74" x="77.95" y="398.3467">ProductPk</text><line style="stroke:#181818;stroke-width:0.5;" x1="23" x2="167" y1="409.5" y2="409.5"/><rect fill="none" height="6" style="stroke:#C82930;stroke-width:1.0;" width="6" x="30" y="420.1484"/><text fill="#000000" font-family="sans-serif" font-size="14" lengthAdjust="spacing" textLength="109" x="42" y="426.4951">Long productId</text><rect fill="none" height="6" style="stroke:#C82930;stroke-width:1.0;" width="6" x="30" y="436.4453"/><text fill="#000000" font-family="sans-serif" font-size="14" lengthAdjust="spacing" textLength="120" x="42" y="442.792">Integer priceList</text></g><!--class TestRestTemplate--><g id="elem_TestRestTemplate"><rect fill="#F1F1F1" height="32" id="TestRestTemplate" rx="2.5" ry="2.5" style="stroke:#181818;stroke-width:0.5;" width="167" x="1248.5" y="398"/><ellipse cx="1263.5" cy="414" fill="#ADD1B2" rx="11" ry="11" style="stroke:#181818;stroke-width:1.0;"/><path d="M1265.8438,409.6719 C1264.9063,409.2344 1264.3125,409.0938 1263.4375,409.0938 C1260.8125,409.0938 1258.8125,411.1719 1258.8125,413.8906 L1258.8125,415.0156 C1258.8125,417.5938 1260.9219,419.4844 1263.8125,419.4844 C1265.0313,419.4844 1266.1875,419.1875 1266.9375,418.6406 C1267.5156,418.2344 1267.8438,417.7813 1267.8438,417.3906 C1267.8438,416.9375 1267.4531,416.5469 1266.9844,416.5469 C1266.7656,416.5469 1266.5625,416.625 1266.375,416.8125 C1265.9219,417.2969 1265.9219,417.2969 1265.7344,417.3906 C1265.3125,417.6563 1264.625,417.7813 1263.8594,417.7813 C1261.8125,417.7813 1260.5156,416.6875 1260.5156,414.9844 L1260.5156,413.8906 C1260.5156,412.1094 1261.7656,410.7969 1263.5,410.7969 C1264.0781,410.7969 1264.6875,410.9531 1265.1563,411.2031 C1265.6406,411.4844 1265.8125,411.7031 1265.9063,412.1094 C1265.9688,412.5156 1266,412.6406 1266.1406,412.7656 C1266.2813,412.9063 1266.5156,413.0156 1266.7344,413.0156 C1267,413.0156 1267.2656,412.875 1267.4375,412.6563 C1267.5469,412.5 1267.5781,412.3125 1267.5781,411.8906 L1267.5781,410.4688 C1267.5781,410.0313 1267.5625,409.9063 1267.4688,409.75 C1267.3125,409.4844 1267.0313,409.3438 1266.7344,409.3438 C1266.4375,409.3438 1266.2344,409.4375 1266.0156,409.75 L1265.8438,409.6719 Z " fill="#000000"/><text fill="#000000" font-family="sans-serif" font-size="14" lengthAdjust="spacing" textLength="135" x="1277.5" y="418.8467">TestRestTemplate</text></g><!--reverse link ProductCommand to ProductDomain--><g id="link_ProductCommand_ProductDomain"><path d="M2259.39,221.786 C2238.33,242.253 2214.01,265.122 2191,285 C2165.9,306.685 2137.66,329.221 2111.74,349.229 " fill="none" id="ProductCommand-backto-ProductDomain" style="stroke:#181818;stroke-width:1.0;"/><polygon fill="none" points="2254.56,216.721,2273.75,207.727,2264.36,226.722,2254.56,216.721" style="stroke:#181818;stroke-width:1.0;"/></g><!--reverse link Comparable to ProductDomain--><g id="link_Comparable_ProductDomain"><path d="M1824.79,196.453 C1839.38,221.768 1861.42,257.182 1885,285 C1904.03,307.446 1926.87,329.755 1948.57,349.31 " fill="none" id="Comparable-backto-ProductDomain" style="stroke:#181818;stroke-width:1.0;stroke-dasharray:7.0,7.0;"/><polygon fill="none" points="1818.68,199.87,1814.98,179.005,1830.88,193.012,1818.68,199.87" style="stroke:#181818;stroke-width:1.0;"/></g><!--reverse link ProductRequestDto to ProductResponseDto--><g id="link_ProductRequestDto_ProductResponseDto"><path d="M638.457,222.013 C659.865,243.555 685.743,267.083 712,285 C764.564,320.867 785.595,315.541 842,345 C856.484,352.565 871.721,361.077 886.215,369.453 " fill="none" id="ProductRequestDto-backto-ProductResponseDto" style="stroke:#181818;stroke-width:1.0;"/><polygon fill="none" points="633.294,226.743,624.401,207.51,643.347,217,633.294,226.743" style="stroke:#181818;stroke-width:1.0;"/></g><!--reverse link PhysicalNamingStrategy to CustomPhysicalNamingStrategy--><g id="link_PhysicalNamingStrategy_CustomPhysicalNamingStrategy"><path d="M363.048,195.734 C388.997,233.083 432.827,296.167 466.593,344.766 " fill="none" id="PhysicalNamingStrategy-backto-CustomPhysicalNamingStrategy" style="stroke:#181818;stroke-width:1.0;stroke-dasharray:7.0,7.0;"/><polygon fill="none" points="357.224,199.62,351.562,179.201,368.722,191.632,357.224,199.62" style="stroke:#181818;stroke-width:1.0;"/></g><!--reverse link Product to ProductPk--><g id="link_Product_ProductPk"><path codeLine="75" d="M106.556,253.139 C103.459,295.989 99.92,344.933 97.584,377.254 " fill="none" id="Product-backto-ProductPk" style="stroke:#181818;stroke-width:1.0;"/><polygon fill="none" points="107.502,240.061,103.0799,245.757,106.6369,252.0298,111.059,246.3338,107.502,240.061" style="stroke:#181818;stroke-width:1.0;"/></g><!--reverse link ProductControllerIntegrationTest to TestRestTemplate--><g id="link_ProductControllerIntegrationTest_TestRestTemplate"><path codeLine="83" d="M1332,298.257 C1332,338.336 1332,377.059 1332,397.673 " fill="none" id="ProductControllerIntegrationTest-backto-TestRestTemplate" style="stroke:#181818;stroke-width:1.0;"/><polygon fill="none" points="1332,285.218,1328,291.218,1332,297.218,1336,291.218,1332,285.218" style="stroke:#181818;stroke-width:1.0;"/></g><!--SRC=[hLPDSnCv4BtFh-YABqwHgTq0oucYYjXaOog0YvZYmaNMTCR2adgGD87PbFUtRqipuy-a24iEjgDMg_lfzUjM5gf0G5E51WoQEJgV-QMobN32GEcehYPsWKu5OIN2ioohX5oA4k7eGs0xV9X_HHayq3LSu0zHaXKQNZkvK87jjSCZkCso9r8Bxs7ggAXb694nmXOmg8J6qY7QssnmILBeiGWuKmP1yDbs6NTi2LLxT59aWuaDM7BgkUCWRCXMcQN0Y1hKchv3_eeJeKSRH51auL8qwBxOb2XkdjLUMMGutSPKsMMqJ-or4pwuEk7kTp_7cyJjj-96m8WS_d7EtE1tSil-zb_iEwQ4yqM_TqBPI8UeAgraWd04meF61ctnT9-CCPbuOCC5u8_0ZWTiALDfD9p5CmeJ2pJNU9lbFHsEoNeTSsAHvMEgUHUk5PTZwfJ4BByAJZ6HidOEhMms1okdY0lSC380PGF851vd1CDTa1HBtfcEcVRitxswsk18QtGfj4jtdw4FCEXAmt3Z-YD_PYmwpP0Xx1asm7IKn9HSu4G0DwIANWRdtRt-mNDoOz6SFh-Wsft-cP8DZn_e_kANt9-UFjJzhry3ys8tUWx0T5HaFRwnWUloigEtjuu3lG9cHizem_YwL1_nMysHsAbFU2RIcHJvarDHF6IZZivgfGi-oWTSCuqTtrk6ztNZoMupdkpruaFH5_GtycNlH3DlVrEempj9XmoZiyCmohKGpKdyNJ2DwTGk-FP4NDxblkhRCRNjmBHz74SMtFeuGEIghLvgW67NHCALVkli8SnEyBytr-v8iEPmtL9xqsA3uJT6msezf4Qr3sIcYyRpADFlXM4_zkPuPSCpAqxEhRbqjryY4oO5kwXhnN02zOuZ4OIcalsvE5iUQltdoTjYBj_O6-N8nYJmjLqVtn-JT6tieuQyaWiqud53nZhna_geGMVnIVXV4VETY9Bi3RemeoihbZZY-N5Fm7D7vaBnVmsMAttO4Ar2M8ZTUhhizJvTRjJPw_tmGSfZpt0NcWhusuNKDrj65dvhwZHTjN8UTJfEWavjrEEXF8SrbZsm3Aw7kzUPsy0aNYeVKj3ifyzUJBV_tcMh_m00]--></g></svg>